Patient4_TMGait_0pt4_02_left_43_EMG.mot
version=1
nRows=19
nColumns=33
inDegrees=no
endheader
time	1LAddLong	2LGlutMax	3LGlutMed	4LIliopsoas	5LSemiMemb	6LBicFemLong	7LRecFem	8LVastMed	9LVastLat	10LGasMed	11LTibAnt	12lTibPost	13LPeroneusLong	14LSol	15LExtDigLong	16LFlexDigLong	17RAddLong	18RGlutMax	19RGlutMed	20RIliopsoas	21RSemiMemb	22RBicFemLong	23RRecFem	24RVastMed	25RVastLat	26RGasMed	27RTibAnt	28RTibPost	29RPeroneusLong	30RSol	31RExtDigLong	32RFlexDigLong
58.698	0.006256	0.016327	0.04837	-0.005341	0.001984	0.016327	-0.025787	0.000916	0.072784	-0.032349	0.014343	-0.009918	0.058899	-0.058594	-0.014191	-0.006256	0.033417	-0.071106	-0.11581	-0.009613	-0.14572	0.011444	0.014343	0.13123	0.13855	-0.007477	0.020294	0.023499	-0.11444	0.56412	-0.001984	-0.005341
58.699	0.004425	0.011444	0.00885	0.014343	0.011444	-0.013733	0.002747	-0.002441	0.073242	-0.021667	0.053558	-0.018311	0.047607	-0.055237	0.066376	-0.006409	0.037689	-0.088654	-0.13901	0.003967	-0.042572	0.07019	0.15396	0.001831	0.013275	0.015259	0.079956	0.005341	-0.042725	0.40939	-0.00351	-0.00061
58.7	0.011444	-0.016022	0.030365	0.016174	0.061493	-0.011902	0.000763	-0.001221	0.073853	-0.068817	0.019836	-0.013733	0.017395	-0.043182	-0.001373	-0.011139	0.017548	-0.097809	-0.10284	-0.057526	0.13733	0.040894	0.17242	-0.002136	-0.014648	0.014038	0.099335	-0.003815	-0.072784	0.36163	-0.000458	-0.005951
58.701	0.006256	-0.020599	0.023956	0.01236	0.055237	-0.024261	0.01358	-0.002289	0.072937	-0.012207	0.033875	-0.01358	-0.011597	-0.074921	-0.041809	-0.01709	0.013885	-0.081329	0.16373	-0.11353	0.074463	0.051117	0.16541	0.056763	-0.014496	-0.020294	-0.13672	-0.013885	-0.095825	0.23346	0.001221	-0.000916
58.702	0.004425	-0.007782	-0.022888	0.012665	0.027618	-0.019073	-0.001068	0.002747	0.07431	-0.047302	0.031891	-0.007629	-0.032806	-0.056458	-0.044861	-0.009918	-0.013733	-0.030975	0.47623	-0.10971	0.049133	0.020447	-0.02533	0.041046	-0.003052	-0.027161	-0.36423	-0.012817	-0.17593	0.19684	0.000458	-0.004883
58.703	0.005646	-0.024719	-0.036163	0.010529	0.002747	-0.035248	-0.002441	-0.001221	0.072632	-0.037842	0.030212	-0.002899	-0.022888	-0.050964	-0.047607	-0.003967	0.005493	-0.013275	0.51834	-0.014801	0.023041	-0.016937	-0.11017	-0.016937	-0.006256	-0.018311	-0.2124	-0.015869	-0.092316	0.19608	0.000458	-0.000916
58.704	0.014191	0.014954	-0.05722	0.009918	0.010681	0.001831	0.000763	0.005188	0.074768	-0.047607	0.02533	-0.010223	-0.005493	-0.069275	-0.027313	0.00473	0.02182	0.040588	0.70084	0.13443	0.004425	-0.027924	0.026855	-0.077057	0.00824	-0.003052	-0.04776	-0.010529	-0.058746	0.21011	-0.005951	-0.004425
58.705	0.005493	-0.035553	-0.0737	0.007172	0.050812	0.002747	-0.004578	0.01297	0.074463	-0.047302	-0.019073	-0.005951	0.046844	-0.052795	-0.006561	-0.011444	0.00885	0.04776	0.53482	0.19531	-0.001526	-0.00824	-0.056152	-0.010986	0.052948	0.005188	0.063477	-0.014954	-0.069122	0.20752	-0.002136	-0.00885
58.706	0.005646	-0.018158	-0.060272	0.009308	0.03418	-0.000458	-0.017853	0.009308	0.068665	-0.035095	-0.093689	-0.00946	0.083466	-0.079041	0.000458	-0.006866	-0.013733	0.068207	0.29755	0.11276	0.027618	0.021515	-0.13947	0.011597	0.058289	0.015869	0.19577	-0.014954	-0.14069	0.060577	-0.001831	-0.010071
58.707	0.009003	-0.00473	-0.0383	-0.000458	0.001221	0.003204	-0.023956	0.008087	0.060577	-0.039215	-0.09613	-0.008087	0.070953	-0.063934	-0.004883	-0.002136	-0.007782	-0.011139	0.13397	0.06134	0.023956	0.0177	-0.044403	0	0.073547	0.004272	0.29053	-0.011444	-0.30655	-0.055542	0.00061	-0.014954
58.708	0.003815	-0.040741	-0.049438	0.007477	-0.036926	-0.046997	-0.02182	0.002594	0.064545	-0.033112	-0.067444	-0.009918	0.03891	-0.070648	0.003815	0.001678	0.012512	-0.03479	0.10971	-0.000458	0.010834	-0.000916	-0.014801	-0.029297	0.041504	-0.016022	0.20676	-0.021362	-0.23727	-0.015717	-0.006866	-0.015717
58.709	0.014191	-0.036926	-0.039215	0	-0.033112	-0.082703	-0.036316	0.002136	0.052643	-0.028381	0.016022	-0.00473	0.012817	-0.068665	0.016022	-0.009613	0.024567	-0.11795	-0.23361	-0.012817	0.016937	0.024109	0.024719	-0.00824	0.024567	-0.011597	0.022125	-0.019226	-0.18387	-0.013428	0.000458	-0.014801
58.71	0.015411	-0.037384	-0.048676	0.004272	0.000305	-0.085449	-0.026093	-0.007782	0.055542	-0.035858	0.15945	-0.007629	-0.010376	-0.065308	0.015869	-0.007324	0.027008	-0.15595	-0.48874	0.048065	0.002747	0.042725	0.027313	-0.050201	0.030212	-0.026093	0.053101	-0.032806	-0.23712	-0.026703	-0.002747	-0.010376
58.711	0.023804	-0.049896	-0.044861	0.007172	0.049438	-0.06485	-0.035858	-0.011902	0.045929	-0.03418	0.13168	-0.001984	0.005341	-0.068817	0.00473	-0.000916	0.011597	-0.10346	-0.85373	0.059357	-0.1001	0.072327	0.000916	-0.003967	0.01297	-0.037994	-0.11993	-0.036011	-0.12375	0.057068	0.001526	-0.013123
58.712	0.017242	-0.046539	-0.007324	0.011597	0.005341	-0.032806	-0.009003	-0.004883	0.045319	-0.031891	0.079193	-0.004272	0.007629	-0.060577	0.010223	-0.002136	0.014038	-0.12283	-0.80994	0.012054	-0.12924	0.084381	-0.025177	-0.053864	0.03067	-0.028229	-0.48859	-0.011902	0.17151	0.16785	-0.000305	-0.009155
58.713	0.015869	-0.066681	0.006714	0	0.00824	-0.035858	-0.01236	0.000916	0.044708	-0.030212	0.024261	-0.004578	0.005493	-0.063477	0.011749	-0.009918	-0.002747	-0.12466	-0.42343	-0.05249	0.005951	0.046997	0.024567	-0.030212	0.033722	-0.017395	-0.36377	0.016174	0.19043	0.28793	-0.000458	-0.010376
58.714	0.018921	-0.048981	0.008087	-0.002899	0.016022	-0.002289	-0.019379	0.00412	0.045776	-0.029602	0.02243	-0.00351	0.005188	-0.068665	0.015869	-0.006714	0.00946	-0.18249	-0.21042	-0.017242	0.13687	0.005798	0.045013	-0.026703	0.033264	-0.015411	-0.009003	-0.019379	0.097046	0.3157	0.00061	-0.010834
58.715	0.016632	-0.079041	-0.032349	-0.002899	0.00412	0.023956	-0.022278	0.006866	0.054626	-0.024109	0.009766	-0.003815	0.007019	-0.074158	0.013733	-0.002899	0.016479	-0.13397	0.018158	0.063934	0.10086	0.013275	0.061493	-0.088043	0.025787	-0.031128	0.16739	-0.028992	-0.027008	0.20737	-0.001526	-0.002441
58.716	0.007019	-0.044403	-0.10468	0.007019	-0.000305	0.01358	-0.016022	0.006104	0.058136	-0.039368	-0.007935	0.007477	0.004883	-0.063019	0.007324	-0.003357	0.025024	-0.21194	0.010529	0.024261	0.07843	0.033722	0.12283	-0.19623	-0.024567	-0.04715	0.18143	-0.014954	-0.050201	0.031128	0.001831	0.002441
